<svg width="19" height="19" viewBox="0 0 19 19" fill="none" xmlns="http://www.w3.org/2000/svg">
    <path
        d="M17.9995 13.7278V16.287C18.0004 16.5245 17.9517 16.7597 17.8563 16.9774C17.7609 17.1951 17.6211 17.3905 17.4457 17.5511C17.2702 17.7117 17.0632 17.834 16.8376 17.9101C16.6121 17.9862 16.3732 18.0145 16.1361 17.9931C13.5059 17.7078 10.9794 16.8109 8.75957 15.3742C6.69433 14.0644 4.94337 12.3169 3.63104 10.2558C2.18648 8.03034 1.28751 5.49657 1.00694 2.85976C0.985578 2.62386 1.01367 2.3861 1.08942 2.16163C1.16518 1.93716 1.28693 1.73089 1.44694 1.55596C1.60694 1.38102 1.80169 1.24125 2.01879 1.14555C2.23589 1.04985 2.47057 1.00031 2.7079 1.00008H5.27217C5.68698 0.996008 6.08913 1.14261 6.40366 1.41257C6.71818 1.68252 6.92362 2.05741 6.98168 2.46735C7.08991 3.28635 7.29063 4.09049 7.58001 4.86445C7.69501 5.16978 7.7199 5.50162 7.65173 5.82063C7.58355 6.13965 7.42518 6.43248 7.19537 6.66441L6.10983 7.7478C7.32662 9.88348 9.09844 11.6518 11.2384 12.8662L12.3239 11.7828C12.5563 11.5534 12.8497 11.3954 13.1694 11.3273C13.489 11.2593 13.8215 11.2841 14.1274 11.3989C14.9029 11.6877 15.7087 11.888 16.5293 11.9961C16.9445 12.0545 17.3237 12.2632 17.5948 12.5825C17.8658 12.9018 18.0099 13.3094 17.9995 13.7278Z"
        stroke="#ffffff" stroke-width="1.7" stroke-linecap="round" stroke-linejoin="round" />
</svg>